<?xml version="1.0" encoding="UTF-8"?>
<svg width="15px" height="15px" viewBox="0 0 15 15" version="1.1" xmlns="http://www.w3.org/2000/svg" xmlns:xlink="http://www.w3.org/1999/xlink">
    <!-- Generator: Sketch 50.2 (55047) - http://www.bohemiancoding.com/sketch -->
    <title>Icon-Back</title>
    <desc>Created with Sketch.</desc>
    <defs></defs>
    <g id="Dashboard" stroke="none" stroke-width="1" fill="none" fill-rule="evenodd">
        <g id="Desktop1366-Edit-Site" transform="translate(-8.000000, -7.000000)" fill="#FFFFFF" fill-rule="nonzero">
            <g id="Group-2">
                <g id="Icon-Back" transform="translate(8.000000, 7.000000)">
                    <path d="M13.9794875,3.73130979 C13.3095103,2.58351936 12.4007289,1.67473804 11.2529043,1.00479499 C10.1048747,0.334886105 8.85164009,0 7.49224374,0 C6.13298405,0 4.87937358,0.334886105 3.73154897,1.00479499 C2.58365604,1.67463554 1.67487472,2.58341686 1.00489749,3.73130979 C0.334886105,4.87927107 0,6.13288155 0,7.49203872 C0,8.85126424 0.33498861,10.1046697 1.00479499,11.2526993 C1.67473804,12.4004897 2.58351936,13.3092711 3.7314123,13.9792825 C4.87937358,14.6491572 6.13288155,14.9840774 7.49210706,14.9840774 C8.85133257,14.9840774 10.1049772,14.6491572 11.2528702,13.9792825 C12.4006948,13.3095103 13.3094419,12.4004897 13.9793508,11.2526993 C14.6491572,10.1047722 14.9840091,8.8511959 14.9840091,7.49203872 C14.9840433,6.13274487 14.6491572,4.87910023 13.9794875,3.73130979 Z M12.0868565,10.1551708 C11.6121185,10.9680752 10.9683144,11.6121185 10.15541,12.0868565 C9.34250569,12.5615945 8.45480638,12.7987244 7.49214123,12.7987244 C6.52971526,12.7987244 5.64194761,12.5615945 4.82894077,12.0868565 C4.01603645,11.6120843 3.37223235,10.9680752 2.89749431,10.1551708 C2.42265376,9.34226651 2.18531891,8.45453303 2.18531891,7.49203872 C2.18531891,6.52947608 2.42275626,5.6417426 2.89749431,4.82883827 C3.37212984,4.01593394 4.01610478,3.37199317 4.82894077,2.89728929 C5.6418451,2.42251708 6.52957859,2.1852164 7.49214123,2.1852164 C8.45477221,2.1852164 9.34250569,2.42251708 10.15541,2.89728929 C10.9683144,3.37202733 11.6121526,4.01593394 12.0868565,4.82883827 C12.5616287,5.6417426 12.798861,6.52947608 12.798861,7.49203872 C12.798861,8.45453303 12.5616287,9.34226651 12.0868565,10.1551708 Z" id="Shape"></path>
                    <path d="M10.9259795,6.24355353 L7.49203872,6.24355353 L7.49203872,4.37050114 C7.49203872,4.28596811 7.46118451,4.21277904 7.39937358,4.15103645 C7.33756264,4.08922551 7.26444191,4.0583713 7.17990888,4.0583713 C7.08888383,4.0583713 7.01405467,4.08755125 6.95552392,4.14611617 L3.83384966,7.26775626 C3.77545558,7.32632118 3.74610478,7.40104784 3.74610478,7.49214123 C3.74610478,7.58326879 3.77531891,7.65799544 3.83384966,7.71645786 L6.94585421,10.8284624 C7.02389522,10.893451 7.10200456,10.9257403 7.18004556,10.9257403 C7.27100228,10.9257403 7.3458656,10.8965262 7.40443052,10.8380638 C7.46296128,10.7796014 7.4921754,10.7049772 7.4921754,10.6138155 L7.4921754,8.74083144 L10.9262187,8.74083144 C11.0106492,8.74083144 11.0838383,8.70997722 11.1455809,8.64823462 C11.2073576,8.58635535 11.2382118,8.51316629 11.2382118,8.42887244 L11.2382118,6.55558087 C11.2382118,6.47101367 11.207221,6.3977221 11.1455809,6.33621868 C11.0835991,6.27440774 11.01041,6.24355353 10.9259795,6.24355353 Z" id="Shape"></path>
                </g>
            </g>
        </g>
    </g>
</svg>