<?xml version="1.0" encoding="UTF-8"?>
<svg width="60px" height="17px" viewBox="0 0 51 17" version="1.1" xmlns="http://www.w3.org/2000/svg" xmlns:xlink="http://www.w3.org/1999/xlink">
    <!-- Generator: Sketch 50.2 (55047) - http://www.bohemiancoding.com/sketch -->
    <title>KiwiLogo-Navi</title>
    <desc>Created with Sketch.</desc>
    <defs></defs>
    <g id="Portal-(Landing-Page)" stroke="none" stroke-width="1" fill="none" fill-rule="evenodd">
        <g id="xBuilder-Desktop_1366px" transform="translate(-143.000000, -11.000000)" fill="#FFFFFF">
            <g id="Header" transform="translate(143.000000, 0.000000)">
                <g id="KiwiLogo-Navi" transform="translate(0.000000, 11.000000)">
                    <g id="kiwiLogo" fill-rule="nonzero">
                        <path d="M20.9810364,8.39479818 C21.0975617,6.86775901 20.6754294,5.32520876 19.760208,3.93399214 C19.6567257,3.77659069 19.4424603,3.73118256 19.2819664,3.83268781 C19.1213084,3.9340725 19.0750428,4.14387413 19.1785661,4.30123539 C20.0115514,5.56751938 20.3961544,6.96552713 20.2909084,8.34424647 C20.1709379,9.91544805 19.4352006,11.4369418 18.1035891,12.8683426 L17.0488326,12.8683426 C16.8946141,12.7568717 16.5139896,12.4471722 16.1296327,11.8686003 C16.0933749,11.8069578 15.8387913,11.3686287 15.5884732,10.8020719 C15.2413585,10.0165515 15.063761,9.3530704 15.0749583,8.8835584 C15.079429,8.69634029 14.9281225,8.54110879 14.737113,8.53672871 C14.5445039,8.53262993 14.3875373,8.68062828 14.3831076,8.86772583 C14.3613694,9.78288043 14.8785347,10.9624068 15.2280694,11.6509226 C11.6357617,11.0874198 8.34815859,6.62400176 8.31354145,6.57642368 C8.31185981,6.57417337 8.31013715,6.5718025 8.3084145,6.56959237 C8.24077982,6.48126754 8.13381122,6.42906828 8.0207723,6.43417167 C7.90810253,6.43762751 7.80421009,6.49464887 7.74235861,6.58703231 C7.34344117,7.18268246 6.67222135,7.5382723 5.946902,7.5382723 C5.65987503,7.5382723 5.38613711,7.48241629 5.13565502,7.38183528 C5.12376051,7.37709354 5.11190701,7.37235181 5.10009452,7.36736897 C5.07240901,7.35567537 5.04488756,7.34362012 5.01777627,7.33084155 C5.01753018,7.33076118 5.0173251,7.33068081 5.01712002,7.33052007 C4.67369665,7.1680956 4.3809275,6.91871256 4.16863091,6.6117054 C4.16813872,6.6109419 4.1675645,6.61021858 4.16707232,6.60945508 C3.93578551,6.27399752 3.80063921,5.86990537 3.80063921,5.43547416 C3.80063921,4.27599972 4.76343872,3.3327162 5.946902,3.3327162 C6.17642513,3.3327162 6.4034053,3.36860067 6.6215261,3.43932483 C6.74289118,3.47870533 6.87651991,3.4493307 6.96905104,3.36285433 C8.1580104,2.2521635 10.5971654,0.429770584 13.578095,0.70635832 C15.2333194,0.859741349 17.0796763,1.85241124 18.3964812,3.29699246 C18.5237115,3.43655213 18.7424066,3.44872793 18.8850587,3.32403641 C19.0275878,3.19934489 19.0399335,2.98504264 18.9126622,2.84536242 C17.4626387,1.25467151 15.4927839,0.202689763 13.6432278,0.0312640352 C10.5089409,-0.259388165 7.95908488,1.54150621 6.63715304,2.73815101 C6.41160841,2.68265666 6.18023958,2.6546081 5.94686098,2.6546081 C4.38182985,2.6546081 3.10858348,3.90208589 3.10858348,5.4353536 C3.10858348,5.90731684 3.22957942,6.35199502 3.44224515,6.74174141 C2.74686716,7.60260718 0.208618565,11.0564378 0.000341496896,15.6690998 C-0.00712333699,15.8345381 0.108540573,15.9810898 0.273915354,16.0156081 C0.298073525,16.0206311 0.322272712,16.0231225 0.346143774,16.0231225 C0.485719762,16.0231225 0.614877794,15.9399814 0.667869911,15.8084586 C0.678821069,15.7812137 1.78148367,13.057369 3.2619407,10.635629 C3.36013198,10.4749726 3.30681174,10.2668587 3.14291352,10.1706176 C2.97897428,10.0744167 2.76651362,10.1266561 2.66828133,10.2872723 C2.02708491,11.3361599 1.45577903,12.4396577 1.00973469,13.3644967 C1.37186117,11.7618309 1.96995022,10.4112003 2.48797688,9.44786489 C3.02474766,8.4496094 3.55442274,7.71315387 3.85953757,7.31983108 C4.03889866,7.51098724 4.24397651,7.67578258 4.46997231,7.81043978 C4.09554116,8.23020376 3.66143236,8.78731728 3.25213798,9.37697999 C3.14463617,9.53184984 3.18565174,9.74269625 3.34368473,9.84797881 C3.50171773,9.95326137 3.71692643,9.91311737 3.82442824,9.75828771 C4.27490225,9.10927296 4.7520774,8.50618873 5.13458862,8.09968553 C5.39208437,8.17515143 5.66459182,8.21630003 5.94677895,8.21630003 C6.74485993,8.21630003 7.49323003,7.89104925 8.02581722,7.32835013 C8.40951788,7.80947536 9.17097195,8.70751149 10.1820878,9.62093817 C10.6193138,10.0159085 11.0524382,10.3685247 11.4810099,10.6794699 C11.6824374,11.1831385 12.3204346,12.7106599 12.8807483,13.3257592 L12.8807483,15.1272161 C12.3482021,15.2617126 11.2063286,15.6333359 10.572515,16.4569911 C10.493519,16.5596215 10.4805991,16.6972925 10.5391694,16.8122595 C10.5976576,16.927347 10.7176281,17 10.8488369,17 L14.5333477,17 L20.6262107,17 C20.7574195,17 20.877308,16.9273068 20.9358783,16.8122595 C20.9944895,16.6972122 20.9814876,16.5596215 20.9025326,16.4569911 C20.26876,15.6332957 19.1268455,15.2617126 18.5942993,15.1272161 L18.5942993,13.3466549 C20.0455123,11.7943801 20.8486382,10.129027 20.9810364,8.39479818 Z M14.9098296,13.4957784 C14.9678666,13.4608986 15.0155267,13.4096637 15.0446478,13.3462933 L15.4938093,12.3672458 C15.5445456,12.3716661 15.5951998,12.3755238 15.645731,12.3784974 C16.0046582,12.8848985 16.3547261,13.1972501 16.5653411,13.3595139 L16.5653411,15.1270956 C16.3591148,15.1791743 16.0614238,15.2670169 15.7373187,15.4027189 C15.4137879,15.2675795 15.1159739,15.1797368 14.9098296,15.1274974 L14.9098296,13.4957784 Z M12.521616,11.3568547 C13.2940622,11.8011712 14.049487,12.1026732 14.784404,12.2596728 L14.505211,12.8683024 L13.3913511,12.8683024 C13.2124412,12.665533 12.8966623,12.166566 12.521616,11.3568547 Z M14.734406,15.9790003 C14.734324,15.9790806 14.7342009,15.9792012 14.7340779,15.9792414 C14.7096326,15.9986503 14.6856795,16.01822 14.6621366,16.0379906 C14.660578,16.0393167 14.6590604,16.0406026 14.6574608,16.0419287 C14.6352714,16.0606947 14.6135331,16.0795813 14.592164,16.0987491 C14.5890468,16.101562 14.5858886,16.1043347 14.5828125,16.1071476 C14.5630019,16.1250296 14.5436016,16.1431125 14.5244883,16.1613561 C14.5199766,16.165696 14.5153829,16.1699957 14.5108711,16.1743356 C14.4932344,16.1913737 14.4760489,16.2085725 14.4590685,16.2258517 C14.4534493,16.231598 14.4477482,16.2373042 14.4421701,16.2430103 C14.426256,16.2595662 14.4107111,16.2762427 14.3953303,16.2929995 C14.38926,16.2996299 14.3830256,16.3062603 14.3769963,16.312971 C14.3742893,16.3159848 14.3713772,16.3189986 14.3686291,16.3220526 L11.7452732,16.3220526 C12.4421688,15.88513 13.2761794,15.7336758 13.2870896,15.731747 C13.4523413,15.7030957 13.572763,15.5623706 13.572763,15.397937 L13.572763,13.5463302 L14.2177329,13.5463302 L14.2177329,15.397937 C14.2177329,15.5623305 14.3380725,15.7029751 14.5032833,15.731747 C14.5062364,15.7322292 14.6762869,15.7624477 14.9275073,15.8363062 C14.8601597,15.8824779 14.7960114,15.9301765 14.734406,15.9790003 Z M19.7297744,16.3220125 L15.4310965,16.3220125 C15.5675553,16.2365809 15.7181235,16.1562125 15.882965,16.0815101 C15.8839904,16.0810681 15.8848518,16.0804251 15.8858771,16.0799429 C16.4455346,15.8274255 16.9631921,15.733274 16.9717234,15.7317068 C17.1369751,15.7030555 17.2573968,15.5623305 17.2573968,15.3978968 L17.2573968,13.54629 L17.9023256,13.54629 L17.9023256,15.3978968 C17.9023256,15.562009 18.0227063,15.7026536 18.18763,15.7316666 C18.1987452,15.7336356 19.0329199,15.88513 19.7297744,16.3220125 Z" id="Shape"></path>
                        <path d="M5.49997476,5 C5.22426935,5 5,5.22433499 5,5.5 C5,5.77571559 5.22426935,6 5.49997476,6 C5.77568018,6 6,5.77571559 6,5.5 C6,5.22428441 5.77568018,5 5.49997476,5 Z" id="Shape"></path>
                    </g>
                    <text id="KIWI" font-family="Exo2-Bold, Exo 2" font-size="12" font-weight="bold">
                        <tspan x="25.372" y="12">KIWI</tspan>
                    </text>
                </g>
            </g>
        </g>
    </g>
</svg>