<?xml version="1.0" encoding="UTF-8"?>
<svg width="60px" height="50px" viewBox="0 0 60 50" version="1.1" xmlns="http://www.w3.org/2000/svg" xmlns:xlink="http://www.w3.org/1999/xlink">
    <!-- Generator: Sketch 50.2 (55047) - http://www.bohemiancoding.com/sketch -->
    <title>kiwiLogo-welcome</title>
    <desc>Created with Sketch.</desc>
    <defs></defs>
    <g id="Dashboard" stroke="none" stroke-width="1" fill="none" fill-rule="evenodd">
        <g id="Dashboard-:-Dashboard-:-Welcome" transform="translate(-653.000000, -345.000000)" fill="#FFFFFF" fill-rule="nonzero">
            <g id="Group-3" transform="translate(541.000000, 345.000000)">
                <g id="kiwiLogo-welcome" transform="translate(112.000000, 0.000000)">
                    <path d="M59.9154814,24.3599398 C60.2482422,19.9287931 59.0427604,15.4526365 56.4291653,11.4156183 C56.1336512,10.9588723 55.5217744,10.8271075 55.0634523,11.1216544 C54.6046618,11.4158515 54.4725414,12.0246517 54.7681726,12.481281 C57.1469259,16.155771 58.2452355,20.2124956 57.944685,24.2132493 C57.6020855,28.7725461 55.5010427,33.1876011 51.6983638,37.3412254 L48.6862991,37.3412254 C48.2458977,37.0177602 47.1589495,36.1190773 46.0613426,34.4401833 C45.9578014,34.2613096 45.2307877,32.9893708 44.5159552,31.345342 C43.5247006,29.0659269 43.0175362,27.1406443 43.0495122,25.7782192 C43.0622791,25.2349516 42.6301938,24.7845024 42.0847285,24.7717923 C41.5346952,24.7598985 41.0864462,25.1893586 41.0737964,25.7322764 C41.0117185,28.3878627 42.488586,31.8106002 43.4867512,33.8085283 C33.2282089,32.1733616 23.8398109,19.2214608 23.7409548,19.0833992 C23.7361526,19.0768692 23.7312332,19.0699895 23.7263138,19.0635762 C23.5331697,18.8072761 23.2276998,18.6558048 22.9048949,18.6706138 C22.5831442,18.6806419 22.2864588,18.8461059 22.1098297,19.1141832 C20.9706424,20.8426347 19.0538421,21.8744817 16.9825498,21.8744817 C16.1628878,21.8744817 15.3811752,21.7123993 14.6658743,21.4205343 C14.6319072,21.4067748 14.5980572,21.3930153 14.5643243,21.3785562 C14.4852629,21.3446238 14.40667,21.309642 14.3292483,21.2725613 C14.3285455,21.272328 14.3279599,21.2720948 14.3273743,21.2716284 C13.3466612,20.8003067 12.5106012,20.0766496 11.9043465,19.1857793 C11.902941,19.1835638 11.9013012,19.1814649 11.8998956,19.1792494 C11.2394106,18.205822 10.8534737,17.0332315 10.8534737,15.7726035 C10.8534737,12.4080524 13.6029373,9.67084187 16.9825498,9.67084187 C17.6379983,9.67084187 18.2861849,9.77497108 18.9090718,9.98019773 C19.2556537,10.0944717 19.6372568,10.0092326 19.9014977,9.75829641 C23.2968053,6.53530507 30.2622927,1.2471039 38.7749244,2.04970337 C43.5017435,2.49478868 48.7743794,5.37530804 52.5347751,9.56717909 C52.8981063,9.97215192 53.522633,10.0074836 53.9300043,9.64565497 C54.3370242,9.28382638 54.3722798,8.66196629 54.0088315,8.25664365 C49.8680039,3.64079298 44.2426955,0.588163086 38.9609237,0.0907216584 C30.0103503,-0.752689933 22.7287343,4.473127 18.9536976,7.94553869 C18.3096105,7.78450573 17.6488912,7.70311471 16.9824327,7.70311471 C12.5131781,7.70311471 8.87717232,11.3230331 8.87717232,15.7722537 C8.87717232,17.1417918 9.22270004,18.4321544 9.83000892,19.5631165 C7.84422014,22.061168 0.595751398,32.0834584 0.00097521164,45.4684341 C-0.0203420916,45.9485013 0.309958981,46.3737635 0.782219237,46.4739281 C0.851207652,46.4885039 0.920313196,46.4957335 0.988481715,46.4957335 C1.38706843,46.4957335 1.75590463,46.2544756 1.90723406,45.8728239 C1.93850725,45.793765 5.08737747,37.8897402 9.31511406,30.8623598 C9.59551859,30.3961688 9.44325214,29.792266 8.97520849,29.5129945 C8.50704772,29.2338396 7.90032447,29.3854275 7.61980281,29.8515019 C5.78874017,32.8951531 4.1572637,36.097272 2.88349627,38.7809603 C3.91761973,34.130361 5.62558081,30.211115 7.10490795,27.415718 C8.63776261,24.5189904 10.1503541,22.3819513 11.0216696,21.2406112 C11.5338705,21.7953062 12.1195107,22.2735076 12.7648862,22.6642545 C11.6956243,23.8823214 10.4559412,25.4989477 9.28712046,27.2100249 C8.98012787,27.6594247 9.09725591,28.2712566 9.54855025,28.5767645 C9.99984458,28.8822724 10.6144154,28.7657829 10.921408,28.3164998 C12.2078253,26.4331954 13.5704929,24.6831717 14.662829,23.5035849 C15.3981588,23.7225711 16.1763575,23.8419757 16.9821984,23.8419757 C19.2612758,23.8419757 21.398394,22.8981663 22.9193016,21.2653317 C24.0150344,22.661456 26.1895165,25.2673681 29.0769569,27.9179403 C30.3255418,29.0640612 31.5624139,30.0872793 32.7862848,30.989577 C33.3615006,32.4511173 35.1834273,36.8836632 36.7835134,38.6685521 L36.7835134,43.8960015 C35.262723,44.286282 32.0018783,45.3646547 30.1918987,47.754729 C29.9663101,48.0525409 29.9294148,48.4520333 30.0966736,48.7856432 C30.2636982,49.1196029 30.6062977,49.3304267 30.9809903,49.3304267 L41.5028364,49.3304267 L58.9022067,49.3304267 C59.2768993,49.3304267 59.6192646,49.1194863 59.7865234,48.7856432 C59.9538994,48.4518 59.9167698,48.0525409 59.6912983,47.754729 C57.8814359,45.3645381 54.6204741,44.286282 53.0996836,43.8960015 L53.0996836,38.7291872 C57.2439079,34.224812 59.5373921,29.3923072 59.9154814,24.3599398 Z M42.5779547,39.1619123 C42.7436909,39.0606982 42.8797937,38.9120255 42.9629546,38.7281378 L44.2456237,35.8871479 C44.3905111,35.8999745 44.5351642,35.9111687 44.679466,35.9197976 C45.7044535,37.3892671 46.7041413,38.2956459 47.3055938,38.7665012 L47.3055938,43.8956517 C46.716674,44.0467731 45.8665587,44.301674 44.9410129,44.6954526 C44.0171069,44.3033064 43.1666402,44.0484056 42.5779547,43.8968177 L42.5779547,39.1619123 Z M35.7579403,32.9552052 C37.9638127,34.2445184 40.1210769,35.1194136 42.2197771,35.5749935 L41.4224866,37.3411088 L38.2416404,37.3411088 C37.7307279,36.7527146 36.8289591,35.3048172 35.7579403,32.9552052 Z M42.0769981,46.3677 C42.0767638,46.3679332 42.0764124,46.3682831 42.076061,46.3683997 C42.0062527,46.4247204 41.93785,46.4815075 41.8706185,46.5388777 C41.8661676,46.5427257 41.8618339,46.5464571 41.8572659,46.5503051 C41.7938996,46.6047601 41.7318217,46.659565 41.670798,46.7151861 C41.6618963,46.7233485 41.6528774,46.7313943 41.6440928,46.7395567 C41.58752,46.7914464 41.5321184,46.8439192 41.4775368,46.8968583 C41.4646527,46.9094518 41.4515343,46.9219286 41.4386502,46.9345221 C41.3882852,46.983963 41.3392085,47.0338704 41.2907175,47.084011 C41.274671,47.1006857 41.2583902,47.1172437 41.2424608,47.1338018 C41.1970151,47.1818435 41.1526236,47.230235 41.1087006,47.2788597 C41.0913656,47.2980997 41.0735621,47.3173397 41.0563443,47.3368129 C41.0486139,47.3455584 41.0402978,47.3543039 41.0324502,47.3631659 L33.5409408,47.3631659 C35.5310633,46.0953083 37.9127449,45.6558201 37.9439009,45.650223 C38.4158098,45.5670829 38.7596977,45.1587285 38.7596977,44.6815765 L38.7596977,39.3086027 L40.6015361,39.3086027 L40.6015361,44.6815765 C40.6015361,45.1586119 40.9451898,45.566733 41.4169816,45.650223 C41.4254148,45.6516222 41.9110276,45.73931 42.6284369,45.9536319 C42.4361126,46.0876123 42.2529244,46.2260237 42.0769981,46.3677 Z M56.3422563,47.3630493 L44.0665349,47.3630493 C44.4562199,47.1151448 44.886197,46.8819327 45.3569346,46.6651621 C45.3598628,46.6638794 45.3623225,46.6620137 45.3652507,46.6606144 C46.9634628,45.927862 48.4417357,45.654654 48.4660984,45.6501064 C48.9380073,45.5669663 49.2818952,45.1586119 49.2818952,44.6814599 L49.2818952,39.3084861 L51.1236165,39.3084861 L51.1236165,44.6814599 C51.1236165,45.157679 51.4673873,45.5658002 51.9383591,45.6499898 C51.9701008,45.6557035 54.3522509,46.0953083 56.3422563,47.3630493 Z" id="Shape"></path>
                    <path d="M16.5300337,15.4157583 C15.8941124,15.4157583 15.3768296,15.7615877 15.3768296,16.1865462 C15.3768296,16.6115827 15.8941124,16.9573342 16.5300337,16.9573342 C17.1659549,16.9573342 17.6833541,16.6115827 17.6833541,16.1865462 C17.6833541,15.7615098 17.1659549,15.4157583 16.5300337,15.4157583 Z" id="Shape"></path>
                </g>
            </g>
        </g>
    </g>
</svg>