<?xml version="1.0" encoding="UTF-8"?>
<svg width="78px" height="64px" viewBox="0 0 78 64" version="1.1" xmlns="http://www.w3.org/2000/svg" xmlns:xlink="http://www.w3.org/1999/xlink">
    <!-- Generator: Sketch 50.2 (55047) - http://www.bohemiancoding.com/sketch -->
    <title>kiwiLogo</title>
    <desc>Created with Sketch.</desc>
    <defs></defs>
    <g id="Portal-(Landing-Page)" stroke="none" stroke-width="1" fill="none" fill-rule="evenodd">
        <g id="xBuilder-Desktop_1366px" transform="translate(-645.000000, -247.000000)" fill="#FFFFFF" fill-rule="nonzero">
            <g id="Banner-Section" transform="translate(0.000000, -193.000000)">
                <g id="kiwiLogo" transform="translate(645.000000, 440.000000)">
                    <path d="M77.9295639,31.6039461 C78.3623719,25.8550928 76.7944521,20.0478447 73.3950581,14.8103233 C73.0106954,14.2177532 72.2148527,14.0468049 71.6187323,14.4289423 C71.0220027,14.8106259 70.8501591,15.6004673 71.2346743,16.1928862 C74.3286194,20.960073 75.7571448,26.223161 75.3662313,31.4136338 C74.9206264,37.3287456 72.1878878,43.0567221 67.2419022,48.4455251 L63.3242355,48.4455251 C62.7514238,48.0258699 61.3376756,46.8599423 59.9100642,44.6817894 C59.7753925,44.4497233 58.8297961,42.7995433 57.9000435,40.6666236 C56.61076,37.7093702 55.9511124,35.2115592 55.9927022,33.4439846 C56.0093077,32.7391635 55.4473123,32.1547625 54.7378484,32.1382728 C54.0224431,32.1228421 53.4394243,32.6800123 53.4229712,33.3843796 C53.3422292,36.8296675 55.263129,41.2702373 56.5614007,43.8622968 C43.2185433,41.7408744 31.0074462,24.9374184 30.8788682,24.7583009 C30.8726221,24.7498292 30.8662237,24.7409035 30.8598253,24.732583 C30.6086108,24.400066 30.2112988,24.2035512 29.79144,24.2227639 C29.3729523,24.2357742 28.987066,24.4504428 28.757332,24.7982393 C27.2756386,27.0406869 24.7825364,28.3793781 22.0884931,28.3793781 C21.022393,28.3793781 20.0056521,28.1690966 19.0752901,27.7904387 C19.0311105,27.7725875 18.9870832,27.7547362 18.9432082,27.7359773 C18.8403763,27.6919543 18.7381538,27.6465699 18.6374547,27.5984623 C18.6365407,27.5981597 18.6357789,27.5978572 18.6350172,27.597252 C17.3594447,26.9857717 16.2720164,26.0469179 15.4834862,24.8911262 C15.4816581,24.8882518 15.4795253,24.8855288 15.4776972,24.8826544 C14.6186319,23.6197554 14.1166599,22.0984673 14.1166599,20.4629615 C14.1166599,16.0978813 17.6927724,12.5466963 22.0884931,12.5466963 C22.9410076,12.5466963 23.7840768,12.6817908 24.5942398,12.9480464 C25.0450244,13.0963024 25.5413597,12.9857156 25.8850467,12.6601575 C30.3011815,8.47873316 39.3609,1.61795985 50.4329244,2.65923132 C56.5809007,3.23667332 63.4387978,6.97378348 68.3297875,12.4122069 C68.8023572,12.937608 69.614653,12.9834463 70.1445038,12.5140194 C70.6738977,12.0445925 70.7197531,11.2378076 70.247031,10.7119526 C64.8612296,4.7234692 57.544626,0.763067342 50.674846,0.117699897 C39.033209,-0.976520151 29.5623153,5.80331749 24.6522827,10.3083332 C23.8145455,10.0994133 22.9551756,9.99381871 22.0883408,9.99381871 C16.275368,9.99381871 11.5461672,14.6902057 11.5461672,20.4625077 C11.5461672,22.2393105 11.9955807,23.913393 12.785482,25.3806736 C10.2026495,28.62158 0.774868957,41.6242363 0.00126841704,58.9895523 C-0.0264581088,59.6123788 0.403150698,60.1641029 1.01739989,60.2940538 C1.10713024,60.3129641 1.19701293,60.3223435 1.28567688,60.3223435 C1.80410197,60.3223435 2.28383181,60.0093418 2.48065967,59.514197 C2.5213354,59.4116281 6.61693936,49.1571539 12.1157797,40.040015 C12.4804902,39.4351911 12.2824436,38.6517035 11.6736788,38.289384 C11.0647616,37.9272158 10.275622,38.1238819 9.91075923,38.7285546 C7.52917253,42.6773077 5.40717924,46.8316526 3.75044315,50.3133994 C5.09548434,44.2798341 7.31695797,39.1951071 9.24105699,35.5684325 C11.234777,31.8102942 13.2021416,29.0377557 14.3354253,27.5570111 C15.0016236,28.2766579 15.7633413,28.8970638 16.6027543,29.4040086 C15.21201,30.9842965 13.5996059,33.0816651 12.0793696,35.3015717 C11.6800772,35.8846112 11.8324207,36.6783859 12.4194004,37.0747438 C13.0063801,37.4711016 13.8057267,37.3199713 14.2050192,36.7370832 C15.8782084,34.2937335 17.6505732,32.0232988 19.0713291,30.4929338 C20.0277419,30.7770407 21.0399125,30.9319531 22.0880361,30.9319531 C25.0523369,30.9319531 27.8319973,29.7074795 29.8101782,27.5890828 C31.2353521,29.4003778 34.0636101,32.7812197 37.8191833,36.2200025 C39.4431655,37.7069497 41.0519134,39.034446 42.6437511,40.2050633 C43.3919103,42.1012273 45.7616142,47.851896 47.8427794,50.1675639 L47.8427794,56.9495195 C45.8647508,57.4558591 41.6235064,58.8549117 39.2693415,61.9557313 C38.9759278,62.3421046 38.9279396,62.8603955 39.1454862,63.2932122 C39.3627281,63.7264828 39.808333,64 40.29568,64 L53.9810057,64 L76.6116398,64 C77.0989868,64 77.544287,63.7263315 77.7618336,63.2932122 C77.9795325,62.8600929 77.9312396,62.3421046 77.6379783,61.9557313 C75.2839658,58.8547604 71.042569,57.4558591 69.0645404,56.9495195 L69.0645404,50.2462304 C74.4547599,44.4023722 77.4377989,38.1328075 77.9295639,31.6039461 Z M55.3793671,50.8076365 C55.5949332,50.6763241 55.7719564,50.48344 55.8801203,50.2448688 L57.5484345,46.5590431 C57.7368835,46.5756841 57.9250278,46.5902072 58.112715,46.601402 C59.4458734,48.5078531 60.7461256,49.6837653 61.5284097,50.2946405 L61.5284097,56.9490657 C60.7624264,57.1451267 59.6567169,57.4758283 58.4528982,57.9867064 C57.2512123,57.4779463 56.1450458,57.1472446 55.3793671,56.9505785 L55.3793671,50.8076365 Z M46.5088593,42.7552178 C49.3779453,44.4279388 52.1838088,45.5630049 54.9135005,46.1540622 L53.876498,48.4453738 L49.7393042,48.4453738 C49.0747817,47.6820067 47.9018887,45.8035427 46.5088593,42.7552178 Z M54.7277937,60.1562363 C54.7274891,60.1565388 54.727032,60.1569927 54.726575,60.157144 C54.6357782,60.230213 54.5468096,60.3038872 54.4593644,60.3783177 C54.4535753,60.38331 54.4479386,60.388151 54.4419972,60.3931433 C54.3595794,60.4637918 54.2788373,60.5348942 54.1994663,60.6070555 C54.1878882,60.6176453 54.1761577,60.6280837 54.164732,60.6386734 C54.09115,60.7059937 54.0190915,60.7740705 53.9480995,60.8427523 C53.9313417,60.8590907 53.9142792,60.8752779 53.8975214,60.8916163 C53.8320137,60.9557597 53.7681817,61.0205082 53.7051115,61.0855593 C53.6842404,61.1071926 53.6630647,61.1286746 53.642346,61.1501566 C53.5832367,61.2124846 53.5254985,61.2752665 53.4683696,61.338351 C53.4458228,61.3633124 53.4226666,61.3882739 53.4002721,61.4135379 C53.3902174,61.4248841 53.379401,61.4362302 53.369194,61.4477276 L43.6253006,61.4477276 C46.2137698,59.8028424 49.3115236,59.2326619 49.3520469,59.2254004 C49.9658391,59.1175366 50.4131198,58.5877483 50.4131198,57.9687039 L50.4131198,50.9979488 L52.8087221,50.9979488 L52.8087221,57.9687039 C52.8087221,58.587597 53.255698,59.1170827 53.8693378,59.2254004 C53.8803066,59.2272158 54.5119229,59.3409796 55.4450272,59.6190352 C55.1948791,59.7928578 54.9566137,59.9724291 54.7277937,60.1562363 Z M73.2820192,61.4475763 L57.3155013,61.4475763 C57.8223482,61.1259515 58.3816014,60.8233883 58.9938701,60.5421557 C58.9976787,60.5404916 59.0008779,60.5380711 59.0046865,60.5362557 C61.0834142,59.585602 63.0061422,59.2311491 63.0378296,59.2252491 C63.6516218,59.1173853 64.0989024,58.587597 64.0989024,57.9685526 L64.0989024,50.9977975 L66.4943524,50.9977975 L66.4943524,57.9685526 C66.4943524,58.5863868 66.9414807,59.1158725 67.5540541,59.2250978 C67.5953392,59.2325106 70.6937023,59.8028424 73.2820192,61.4475763 Z" id="Shape"></path>
                    <path d="M21.4999243,20 C20.672808,20 20,20.44867 20,21 C20,21.5514312 20.672808,22 21.4999243,22 C22.3270405,22 23,21.5514312 23,21 C23,20.4485688 22.3270405,20 21.4999243,20 Z" id="Shape"></path>
                </g>
            </g>
        </g>
    </g>
</svg>